<svg xmlns="http://www.w3.org/2000/svg" width="436" height="436" viewBox="0 0 436 436">
  <g id="Group_265" data-name="Group 265" transform="translate(-59 -1930)">
    <g id="Rectangle_197" data-name="Rectangle 197" transform="translate(59 1930)" fill="#2e2626" stroke="#707070" stroke-width="1">
      <rect width="436" height="436" rx="63" stroke="none"/>
      <rect x="0.5" y="0.5" width="435" height="435" rx="62.5" fill="none"/>
    </g>
    <g id="Group_264" data-name="Group 264">
      <path id="Union_13" data-name="Union 13" d="M15.485,132.313l.163-.132c-.334-.464-.657-.919-.958-1.354a83.248,83.248,0,0,1-7.931-14.254,82.15,82.15,0,0,1,0-65.321A83.27,83.27,0,0,1,14.69,37a85.066,85.066,0,0,1,10.5-12.419A86.383,86.383,0,0,1,52.539,6.6a87.22,87.22,0,0,1,16.15-4.891,89.012,89.012,0,0,1,34.678,0,86.749,86.749,0,0,1,30.763,12.629A86.206,86.206,0,0,1,146.86,24.58c1.415,1.38,2.8,2.832,4.125,4.316l.216-.169,13.313,17.04-44.823,35.02L108.473,66.429l-3.609-3.9a29.128,29.128,0,0,0-2.8-2.157A28.687,28.687,0,0,0,59.6,95.31c.359.852.768,1.7,1.214,2.517l-.042.032,89.736,110.814-44.205,35.8Z" transform="translate(467.021 2340.85) rotate(180)" fill="#ffa73c" stroke="#707070" stroke-width="1"/>
      <path id="Union_15" data-name="Union 15" d="M15.669,134.139l.165-.134c-.339-.47-.665-.932-.969-1.372a84.393,84.393,0,0,1-8.025-14.451,83.434,83.434,0,0,1,0-66.223A84.411,84.411,0,0,1,14.865,37.51,86.165,86.165,0,0,1,25.494,24.919,87.559,87.559,0,0,1,69.5,1.729a89.9,89.9,0,0,1,35.089,0,87.464,87.464,0,0,1,44.01,23.19c1.432,1.4,2.835,2.872,4.174,4.376l.219-.171L166.466,46.4,121.112,81.9,109.76,67.346l-3.652-3.958a28.994,28.994,0,0,0-7.765-4.866A28.93,28.93,0,0,0,70.825,61.2,29.136,29.136,0,0,0,60.312,96.626c.364.864.777,1.722,1.229,2.552l-.042.032,90.8,112.343L107.57,247.845Z" transform="translate(467.228 1952.926) rotate(90)" fill="#0180b1" stroke="#707070" stroke-width="1"/>
      <text id="CO-OP" transform="matrix(0.788, -0.616, 0.616, 0.788, 281.653, 2135.977)" font-size="48" font-family="ArialMT, Arial"><tspan x="0" y="0">CO-OP</tspan></text>
      <path id="Union_18" data-name="Union 18" d="M15.485,132.313l.163-.132c-.334-.464-.657-.919-.958-1.354a83.248,83.248,0,0,1-7.931-14.254,82.15,82.15,0,0,1,0-65.321A83.27,83.27,0,0,1,14.69,37a85.066,85.066,0,0,1,10.5-12.419A86.383,86.383,0,0,1,52.539,6.6a87.22,87.22,0,0,1,16.15-4.891,89.012,89.012,0,0,1,34.678,0,86.749,86.749,0,0,1,30.763,12.629A86.206,86.206,0,0,1,146.86,24.58c1.415,1.38,2.8,2.832,4.125,4.316l.216-.169,13.313,17.04-44.823,35.02L108.473,66.429l-3.609-3.9a29.128,29.128,0,0,0-2.8-2.157A28.687,28.687,0,0,0,59.6,95.31c.359.852.768,1.7,1.214,2.517l-.042.032,89.736,110.814-44.205,35.8Z" transform="translate(467.021 2340.85) rotate(180)" fill="#a0927e"/>
      <path id="Union_20" data-name="Union 20" d="M15.669,134.139l.165-.134c-.339-.47-.665-.932-.969-1.372a84.393,84.393,0,0,1-8.025-14.451,83.434,83.434,0,0,1,0-66.223A84.411,84.411,0,0,1,14.865,37.51,86.165,86.165,0,0,1,25.494,24.919,87.559,87.559,0,0,1,69.5,1.729a89.9,89.9,0,0,1,35.089,0,87.464,87.464,0,0,1,44.01,23.19c1.432,1.4,2.835,2.872,4.174,4.376l.219-.171L166.466,46.4,121.112,81.9,109.76,67.346l-3.652-3.958a28.994,28.994,0,0,0-7.765-4.866A28.93,28.93,0,0,0,70.825,61.2,29.136,29.136,0,0,0,60.312,96.626c.364.864.777,1.722,1.229,2.552l-.042.032,90.8,112.343L107.57,247.845Z" transform="translate(467.228 1952.926) rotate(90)" fill="#0180b1"/>
      <text id="CO-OP-2" data-name="CO-OP" transform="matrix(0.788, -0.616, 0.616, 0.788, 291.653, 2135.977)" fill="#fff" font-size="48" font-family="ArialMT, Arial"><tspan x="0" y="0">CO-OP</tspan></text>
      <path id="Union_12" data-name="Union 12" d="M15.879,135.685l.167-.135c-.344-.475-.674-.942-.982-1.388a85.292,85.292,0,0,1-8.133-14.618,84.249,84.249,0,0,1,0-66.986,85.333,85.333,0,0,1,8.133-14.616A87.217,87.217,0,0,1,25.836,25.206,88.585,88.585,0,0,1,53.878,6.764,89.42,89.42,0,0,1,70.439,1.748a91.28,91.28,0,0,1,35.562,0A88.974,88.974,0,0,1,137.548,14.7,88.406,88.406,0,0,1,150.6,25.206c1.451,1.416,2.873,2.9,4.23,4.427l.222-.173,13.652,17.474L122.742,82.846l-11.5-14.724-3.7-4A29.392,29.392,0,0,0,99.667,59.2a29.4,29.4,0,0,0-32.24,6.3,29.734,29.734,0,0,0-3.592,4.352A29.457,29.457,0,0,0,61.124,97.74c.369.874.788,1.742,1.245,2.581l-.043.032L154.35,213.991,109.018,250.7Z" transform="translate(87.5 1957.059)" fill="#00b8aa" stroke="#707070" stroke-width="1"/>
      <rect id="Rectangle_179" data-name="Rectangle 179" width="58.331" height="147.998" transform="translate(103.379 2091.78) rotate(-39)" fill="none"/>
      <path id="Union_16" data-name="Union 16" d="M15.561,133.979l.163-.134c-.335-.468-.659-.93-.962-1.371a84.458,84.458,0,0,1-7.97-14.433,83.758,83.758,0,0,1,0-66.144,84.5,84.5,0,0,1,7.97-14.432,86.2,86.2,0,0,1,23.35-22.952A86.779,86.779,0,0,1,69.022,1.727a88.751,88.751,0,0,1,34.847,0,86.734,86.734,0,0,1,43.708,23.163c1.42,1.4,2.814,2.868,4.144,4.372l.218-.171,13.378,17.255L120.274,81.805,109,67.262l-3.621-3.946a29.214,29.214,0,0,0-2.822-2.187,28.841,28.841,0,0,0-4.894-2.677,28.7,28.7,0,0,0-22.432,0,28.849,28.849,0,0,0-9.16,6.223,29.248,29.248,0,0,0-6.177,31.835c.362.861.773,1.72,1.22,2.548l-.041.032L151.245,211.3l-44.419,36.248Z" transform="translate(89.704 2343.372) rotate(-90)" fill="#ea6675" stroke="#707070" stroke-width="1"/>
      <text id="SRP" transform="translate(188.065 2276.051) rotate(-40)" font-size="70" font-family="Inconsolata-BoldForPowerline, Inconsolata for Powerline" font-weight="700"><tspan x="0" y="0">SRP</tspan></text>
      <path id="Union_17" data-name="Union 17" d="M15.879,135.685l.167-.135c-.344-.475-.674-.942-.982-1.388a85.292,85.292,0,0,1-8.133-14.618,84.249,84.249,0,0,1,0-66.986,85.333,85.333,0,0,1,8.133-14.616A87.217,87.217,0,0,1,25.836,25.206,88.585,88.585,0,0,1,53.878,6.764,89.42,89.42,0,0,1,70.439,1.748a91.28,91.28,0,0,1,35.562,0A88.974,88.974,0,0,1,137.548,14.7,88.406,88.406,0,0,1,150.6,25.206c1.451,1.416,2.873,2.9,4.23,4.427l.222-.173,13.652,17.474L122.742,82.846l-11.5-14.724-3.7-4A29.392,29.392,0,0,0,99.667,59.2a29.4,29.4,0,0,0-32.24,6.3,29.734,29.734,0,0,0-3.592,4.352A29.457,29.457,0,0,0,61.124,97.74c.369.874.788,1.742,1.245,2.581l-.043.032L154.35,213.991,109.018,250.7Z" transform="translate(87.5 1957.059)" fill="#00b8aa"/>
      <rect id="Rectangle_184" data-name="Rectangle 184" width="58.331" height="147.998" transform="translate(103.379 2091.78) rotate(-39)" fill="none"/>
      <path id="Union_21" data-name="Union 21" d="M15.561,133.979l.163-.134c-.335-.468-.659-.93-.962-1.371a84.458,84.458,0,0,1-7.97-14.433,83.758,83.758,0,0,1,0-66.144,84.5,84.5,0,0,1,7.97-14.432,86.2,86.2,0,0,1,23.35-22.952A86.779,86.779,0,0,1,69.022,1.727a88.751,88.751,0,0,1,34.847,0,86.734,86.734,0,0,1,43.708,23.163c1.42,1.4,2.814,2.868,4.144,4.372l.218-.171,13.378,17.255L120.274,81.805,109,67.262l-3.621-3.946a29.214,29.214,0,0,0-2.822-2.187,28.841,28.841,0,0,0-4.894-2.677,28.7,28.7,0,0,0-22.432,0,28.849,28.849,0,0,0-9.16,6.223,29.248,29.248,0,0,0-6.177,31.835c.362.861.773,1.72,1.22,2.548l-.041.032L151.245,211.3l-44.419,36.248Z" transform="translate(89.704 2343.372) rotate(-90)" fill="#ea6675"/>
      <text id="SRP-2" data-name="SRP" transform="translate(188.065 2276.051) rotate(-40)" fill="#fff" font-size="70" font-family="Inconsolata-BoldForPowerline, Inconsolata for Powerline" font-weight="700"><tspan x="0" y="0">SRP</tspan></text>
      <text id="Develop" transform="translate(157.254 2042.937) rotate(51)" fill="#fff" font-size="48" font-family="ArialMT, Arial"><tspan x="0" y="0">Develop</tspan></text>
      <text id="Pool" transform="translate(300.254 2180.937) rotate(51)" fill="#fff" font-size="48" font-family="ArialMT, Arial"><tspan x="0" y="0">Pool</tspan></text>
    </g>
  </g>
</svg>
